<svg width="212" height="212" viewBox="0 0 212 212" fill="none" xmlns="http://www.w3.org/2000/svg">
<path d="M26 80.4C26 61.3582 26 51.8373 29.7058 44.5643C32.9655 38.1668 38.1668 32.9655 44.5643 29.7058C51.8373 26 61.3582 26 80.4 26H131.6C150.642 26 160.163 26 167.436 29.7058C173.833 32.9655 179.035 38.1668 182.294 44.5643C186 51.8373 186 61.3582 186 80.4V131.6C186 150.642 186 160.163 182.294 167.436C179.035 173.833 173.833 179.035 167.436 182.294C160.163 186 150.642 186 131.6 186H80.4C61.3582 186 51.8373 186 44.5643 182.294C38.1668 179.035 32.9655 173.833 29.7058 167.436C26 160.163 26 150.642 26 131.6V80.4Z" fill="#37E278" fill-opacity="0.85" style="mix-blend-mode:color-dodge"/>
<path d="M26 80.4C26 61.3582 26 51.8373 29.7058 44.5643C32.9655 38.1668 38.1668 32.9655 44.5643 29.7058C51.8373 26 61.3582 26 80.4 26H131.6C150.642 26 160.163 26 167.436 29.7058C173.833 32.9655 179.035 38.1668 182.294 44.5643C186 51.8373 186 61.3582 186 80.4V131.6C186 150.642 186 160.163 182.294 167.436C179.035 173.833 173.833 179.035 167.436 182.294C160.163 186 150.642 186 131.6 186H80.4C61.3582 186 51.8373 186 44.5643 182.294C38.1668 179.035 32.9655 173.833 29.7058 167.436C26 160.163 26 150.642 26 131.6V80.4Z" fill="#F5F5F5" fill-opacity="0.35"/>
<rect x="26" y="26" width="160" height="160" rx="34" fill="black" fill-opacity="0.01"/>
</svg>